<?xml version="1.0" encoding="utf-8"?>
<!-- Generator: Adobe Illustrator 18.0.0, SVG Export Plug-In . SVG Version: 6.00 Build 0)  -->
<!DOCTYPE svg PUBLIC "-//W3C//DTD SVG 1.1//EN" "http://www.w3.org/Graphics/SVG/1.1/DTD/svg11.dtd">
<svg version="1.1" id="Layer_1" xmlns="http://www.w3.org/2000/svg" xmlns:xlink="http://www.w3.org/1999/xlink" x="0px" y="0px"
	 viewBox="0 0 211.6 69.4" enable-background="new 0 0 211.6 69.4" xml:space="preserve">
<g>
	<g>
		<path fill="#FFFFFF" d="M17,17.6c2.8-2.9,6.8-4.7,11.1-4.7c4.4,0,8.3,1.8,11.1,4.7c2.8,2.9,4.6,6.8,4.6,11.1
			c0,4.4-1.8,8.3-4.6,11.1c-2.9,2.9-6.8,4.7-11.1,4.7c-4.3,0-8.3-1.8-11.1-4.7c-2.8-2.9-4.6-6.8-4.6-11.1
			C12.4,24.3,14.2,20.4,17,17.6z M36,20.7c-2.1-2.1-4.9-3.3-8-3.3c-3,0-5.9,1.3-7.9,3.3c-2,2-3.3,4.8-3.3,8c0,2.5,0.8,4.9,2.2,6.7
			c0.3,0.4,0.7,0.9,1.1,1.2c0.2,0.2,0.4,0.4,0.6,0.5c2,1.7,4.6,2.8,7.3,2.8c3,0,5.9-1.3,8-3.3c2-2,3.3-4.8,3.3-8
			C39.3,25.5,38,22.7,36,20.7z"/>
		<path fill="#FFFFFF" d="M57.7,13.3c6.7,0,10,5.2,10,10.3s-3.3,10.3-10,10.3H51v10.3h-4.5V13.3H57.7z M57.7,29.4
			c3.7,0,5.6-2.9,5.6-5.8c0-3-1.8-5.9-5.6-5.9H51v11.7H57.7z"/>
		<path fill="#FFFFFF" d="M74.1,39.7h14.3v4.4H69.6V13.3h18.8v4.4H74.1v8.7h14v4.5h-14V39.7z"/>
		<path fill="#FFFFFF" d="M96.5,28.5h5.2c3.7,0,5.6-2.7,5.6-5.4c0-2.6-1.9-5.3-5.6-5.3h-6.8v26.3h-4.4V13.3h11.2
			c6.7,0,10,4.9,10,9.8c0,4.4-2.7,8.5-8,9.4l9.7,11.6h-5.8L96.5,30.6V28.5z"/>
		<path fill="#FFFFFF" d="M130.6,35h-11.1c-1.2,2.8-2.7,6.5-3.7,9.1H111l12.4-31.2h3.3L139,44.1h-4.8L130.6,35z M121.2,30.9h7.7
			L125.1,20L121.2,30.9z"/>
		<path fill="#FFFFFF" d="M139.5,44.1V13.2l3.4,0L158,35V13.3h4.4v30.8h-3.5L144,22.6v21.5H139.5z"/>
		<path fill="#FFFFFF" d="M176.5,13.3c10.1,0,15.2,7.7,15.2,15.4c0,7.7-5.1,15.4-15.2,15.4h-11.1V13.3H176.5z M176.5,39.7
			c7.1,0,10.7-5.5,10.7-10.9s-3.6-11-10.7-11h-6.6v21.9H176.5z"/>
	</g>
	<path fill="#FFFFFF" d="M31.7,23.4h-7.4c-0.7,0-1.2,0.6-1.2,1.2v0.6c0,0.7,0.6,1.2,1.2,1.2l5.7,0v5.7c0,0.7,0.6,1.2,1.2,1.2h0.6
		c0.7,0,1.2-0.6,1.2-1.2l0-7.4c0-0.4-0.2-0.7-0.4-0.9C32.3,23.6,32,23.4,31.7,23.4z"/>
	<g>
		<g>
			<path fill="#FFFFFF" d="M198.2,25.3v19.2h-4.4V25.3H198.2z"/>
		</g>
	</g>
	<path fill="#FFFFFF" d="M29.1,25.5l-6.7,6.7c-0.5,0.5-0.5,1.3,0,1.7l0.4,0.4c0.5,0.5,1.3,0.5,1.7,0l6.7-6.7
		C31.3,27.6,29.3,25.2,29.1,25.5z"/>
	<circle fill="#FFFFFF" cx="196" cy="21.6" r="2.2"/>
</g>
<g>
	<path fill="#FFFFFF" d="M42.1,55.7h-2V55h5v0.7H43v6h-0.9V55.7z"/>
	<path fill="#FFFFFF" d="M49.4,58.5h-2.6V61h2.9v0.7H46V55h3.6v0.7h-2.8v2.1h2.6V58.5z"/>
	<path fill="#FFFFFF" d="M55.6,61.5c-0.3,0.2-1,0.3-1.8,0.3c-1.9,0-3.3-1.2-3.3-3.4c0-2.1,1.4-3.5,3.5-3.5c0.8,0,1.4,0.2,1.6,0.3
		l-0.2,0.7c-0.3-0.2-0.8-0.3-1.4-0.3c-1.6,0-2.6,1-2.6,2.8c0,1.6,0.9,2.7,2.6,2.7c0.5,0,1.1-0.1,1.4-0.3L55.6,61.5z"/>
	<path fill="#FFFFFF" d="M57.5,55v2.8h3.3V55h0.9v6.7h-0.9v-3.2h-3.3v3.2h-0.9V55H57.5z"/>
	<path fill="#FFFFFF" d="M63.2,61.7V55h0.9l2.2,3.4c0.5,0.8,0.9,1.5,1.2,2.2l0,0c-0.1-0.9-0.1-1.7-0.1-2.8V55h0.8v6.7h-0.9l-2.1-3.4
		c-0.5-0.7-0.9-1.5-1.3-2.2l0,0c0,0.8,0.1,1.7,0.1,2.8v2.9H63.2z"/>
	<path fill="#FFFFFF" d="M75.6,58.3c0,2.3-1.4,3.5-3.1,3.5c-1.8,0-3-1.4-3-3.4c0-2.1,1.3-3.5,3.1-3.5C74.5,54.8,75.6,56.3,75.6,58.3
		z M70.4,58.4c0,1.4,0.8,2.7,2.1,2.7c1.4,0,2.2-1.3,2.2-2.8c0-1.3-0.7-2.7-2.1-2.7C71.1,55.6,70.4,56.9,70.4,58.4z"/>
	<path fill="#FFFFFF" d="M76.9,55h0.9v6h2.9v0.7h-3.7V55z"/>
	<path fill="#FFFFFF" d="M87.2,58.3c0,2.3-1.4,3.5-3.1,3.5c-1.8,0-3-1.4-3-3.4c0-2.1,1.3-3.5,3.1-3.5C86,54.8,87.2,56.3,87.2,58.3z
		 M81.9,58.4c0,1.4,0.8,2.7,2.1,2.7c1.4,0,2.2-1.3,2.2-2.8c0-1.3-0.7-2.7-2.1-2.7C82.7,55.6,81.9,56.9,81.9,58.4z"/>
	<path fill="#FFFFFF" d="M93.6,61.4c-0.4,0.1-1.2,0.4-2.1,0.4c-1,0-1.9-0.3-2.5-0.9c-0.6-0.6-0.9-1.5-0.9-2.5c0-2,1.4-3.5,3.6-3.5
		c0.8,0,1.4,0.2,1.7,0.3l-0.2,0.7c-0.4-0.2-0.8-0.3-1.5-0.3c-1.6,0-2.7,1-2.7,2.7c0,1.7,1,2.7,2.6,2.7c0.6,0,1-0.1,1.2-0.2v-2h-1.4
		v-0.7h2.2V61.4z"/>
	<path fill="#FFFFFF" d="M96.4,61.7v-2.9L94.3,55h1l0.9,1.9c0.3,0.5,0.5,0.9,0.7,1.4h0c0.2-0.4,0.4-0.9,0.7-1.4l1-1.9h1l-2.3,3.9
		v2.9H96.4z"/>
	<path fill="#FFFFFF" d="M102.4,60.6c0.4,0.2,1,0.4,1.6,0.4c0.9,0,1.4-0.5,1.4-1.1c0-0.6-0.4-1-1.3-1.3c-1.1-0.4-1.8-1-1.8-1.9
		c0-1,0.9-1.8,2.2-1.8c0.7,0,1.2,0.2,1.5,0.3l-0.2,0.7c-0.2-0.1-0.7-0.3-1.3-0.3c-0.9,0-1.3,0.5-1.3,1c0,0.6,0.4,0.9,1.3,1.3
		c1.1,0.4,1.7,1,1.7,2c0,1-0.8,1.9-2.4,1.9c-0.6,0-1.4-0.2-1.7-0.4L102.4,60.6z"/>
	<path fill="#FFFFFF" d="M113.3,58.3c0,2.3-1.4,3.5-3.1,3.5c-1.8,0-3-1.4-3-3.4c0-2.1,1.3-3.5,3.1-3.5
		C112.1,54.8,113.3,56.3,113.3,58.3z M108,58.4c0,1.4,0.8,2.7,2.1,2.7c1.4,0,2.2-1.3,2.2-2.8c0-1.3-0.7-2.7-2.1-2.7
		C108.8,55.6,108,56.9,108,58.4z"/>
	<path fill="#FFFFFF" d="M114.5,55h0.9v6h2.9v0.7h-3.7V55z"/>
	<path fill="#FFFFFF" d="M119.9,55v4c0,1.5,0.7,2.1,1.6,2.1c1,0,1.6-0.7,1.6-2.1v-4h0.9v3.9c0,2.1-1.1,2.9-2.5,2.9
		c-1.4,0-2.4-0.8-2.4-2.9v-4H119.9z"/>
	<path fill="#FFFFFF" d="M126.9,55.7h-2V55h5v0.7h-2.1v6h-0.9V55.7z"/>
	<path fill="#FFFFFF" d="M131.6,55v6.7h-0.9V55H131.6z"/>
	<path fill="#FFFFFF" d="M139,58.3c0,2.3-1.4,3.5-3.1,3.5c-1.8,0-3-1.4-3-3.4c0-2.1,1.3-3.5,3.1-3.5C137.8,54.8,139,56.3,139,58.3z
		 M133.7,58.4c0,1.4,0.8,2.7,2.1,2.7c1.4,0,2.2-1.3,2.2-2.8c0-1.3-0.7-2.7-2.1-2.7C134.5,55.6,133.7,56.9,133.7,58.4z"/>
	<path fill="#FFFFFF" d="M140.2,61.7V55h0.9l2.2,3.4c0.5,0.8,0.9,1.5,1.2,2.2l0,0c-0.1-0.9-0.1-1.7-0.1-2.8V55h0.8v6.7h-0.9
		l-2.1-3.4c-0.5-0.7-0.9-1.5-1.3-2.2l0,0c0.1,0.8,0.1,1.7,0.1,2.8v2.9H140.2z"/>
	<path fill="#FFFFFF" d="M146.7,60.6c0.4,0.2,1,0.4,1.6,0.4c0.9,0,1.4-0.5,1.4-1.1c0-0.6-0.4-1-1.3-1.3c-1.1-0.4-1.8-1-1.8-1.9
		c0-1,0.9-1.8,2.2-1.8c0.7,0,1.2,0.2,1.5,0.3l-0.2,0.7c-0.2-0.1-0.7-0.3-1.3-0.3c-0.9,0-1.3,0.5-1.3,1c0,0.6,0.4,0.9,1.3,1.3
		c1.1,0.4,1.7,1,1.7,2c0,1-0.8,1.9-2.4,1.9c-0.6,0-1.4-0.2-1.7-0.4L146.7,60.6z"/>
	<path fill="#FFFFFF" d="M154.8,55v6.7H154V55H154.8z"/>
	<path fill="#FFFFFF" d="M156.4,61.7V55h0.9l2.2,3.4c0.5,0.8,0.9,1.5,1.2,2.2l0,0c-0.1-0.9-0.1-1.7-0.1-2.8V55h0.8v6.7h-0.9
		l-2.1-3.4c-0.5-0.7-0.9-1.5-1.3-2.2l0,0c0.1,0.8,0.1,1.7,0.1,2.8v2.9H156.4z"/>
	<path fill="#FFFFFF" d="M167.8,61.5c-0.3,0.2-1,0.3-1.8,0.3c-1.9,0-3.3-1.2-3.3-3.4c0-2.1,1.4-3.5,3.5-3.5c0.8,0,1.4,0.2,1.6,0.3
		l-0.2,0.7c-0.3-0.2-0.8-0.3-1.4-0.3c-1.6,0-2.6,1-2.6,2.8c0,1.6,0.9,2.7,2.6,2.7c0.5,0,1.1-0.1,1.4-0.3L167.8,61.5z"/>
	<path fill="#FFFFFF" d="M168.9,61.2c0-0.4,0.2-0.6,0.6-0.6s0.6,0.3,0.6,0.6c0,0.4-0.2,0.6-0.6,0.6
		C169.1,61.8,168.9,61.5,168.9,61.2z"/>
</g>
</svg>
