<?xml version="1.0" encoding="utf-8"?>
<!-- Generator: Adobe Illustrator 18.1.1, SVG Export Plug-In . SVG Version: 6.00 Build 0)  -->
<svg version="1.1" baseProfile="tiny" id="Layer_1" xmlns="http://www.w3.org/2000/svg" xmlns:xlink="http://www.w3.org/1999/xlink"
	 x="0px" y="0px" viewBox="0 0 320.8 88.4" xml:space="preserve">
<g>
	<g>
		<path fill="#00669B" d="M35.8,31.1c4.1-4.2,9.9-6.8,16.3-6.8c6.4,0,12.1,2.6,16.3,6.8c4.1,4.2,6.7,9.9,6.7,16.3
			c0,6.4-2.6,12.1-6.7,16.3c-4.2,4.3-9.9,6.8-16.3,6.8c-6.3,0-12.1-2.6-16.3-6.8c-4.1-4.2-6.7-9.9-6.7-16.3
			C29.1,41,31.7,35.3,35.8,31.1z M63.7,35.7c-3-3-7.2-4.9-11.7-4.9s-8.6,1.9-11.6,4.9c-3,3-4.8,7.1-4.8,11.7c0,3.7,1.2,7.1,3.3,9.9
			c0.5,0.6,1,1.3,1.6,1.8c0.3,0.3,0.5,0.5,0.8,0.8C44.2,62.4,48,64,52.1,64c4.5,0,8.7-1.9,11.7-4.9c2.9-3,4.8-7,4.8-11.7
			C68.5,42.7,66.6,38.7,63.7,35.7z"/>
		<path fill="#00669B" d="M95.6,24.8c9.7,0,14.7,7.6,14.7,15.1c0,7.6-4.9,15-14.7,15h-9.9v15H79V24.8H95.6z M95.6,48.5
			c5.5,0,8.2-4.3,8.2-8.5c0-4.3-2.7-8.6-8.2-8.6h-9.9v17.1H95.6z"/>
		<path fill="#00669B" d="M119.5,63.5h21V70h-27.6V24.9h27.5v6.5h-20.9v12.7H140v6.6h-20.5V63.5z"/>
		<path fill="#00669B" d="M152.3,47.1h7.6c5.5,0,8.2-3.9,8.2-7.9c0-3.9-2.7-7.8-8.2-7.8h-10V70h-6.5V24.8h16.5
			c9.8,0,14.7,7.2,14.7,14.4c0,6.4-3.9,12.5-11.7,13.8l14.3,17h-8.5l-16.5-19.8V47.1z"/>
		<path fill="#00669B" d="M202.3,56.7h-16.2c-1.7,4.1-4,9.6-5.4,13.3h-7l18.1-45.8h4.8L214.7,70h-7L202.3,56.7z M188.5,50.6h11.2
			l-5.6-15.9L188.5,50.6z"/>
		<path fill="#00669B" d="M215.4,70V24.7l5,0.1l22,31.8V24.8h6.5V70h-5.2l-21.8-31.6V70H215.4z"/>
		<path fill="#00669B" d="M269.6,24.9c14.8,0,22.2,11.3,22.2,22.6c0,11.3-7.4,22.5-22.2,22.5h-16.2V24.9H269.6z M269.6,63.5
			c10.5,0,15.8-8,15.8-16s-5.3-16.1-15.8-16.1H260v32.1H269.6z"/>
	</g>
	<path fill="#00669B" d="M57.3,39.7l-10.9,0c-1,0-1.8,0.8-1.8,1.8v0.9c0,1,0.8,1.8,1.8,1.8l8.3,0l0,8.3c0,1,0.8,1.8,1.8,1.8h0.9
		c1,0,1.8-0.8,1.8-1.8l0-10.9c0-0.5-0.2-1-0.6-1.3C58.3,39.9,57.9,39.7,57.3,39.7z"/>
	<g>
		<g>
			<path fill="#00669B" d="M301.4,42.5v28.1h-6.5V42.5H301.4z"/>
		</g>
	</g>
	<path fill="#00669B" d="M53.6,42.6l-9.8,9.8c-0.7,0.7-0.7,1.9,0,2.6l0.6,0.6c0.7,0.7,1.9,0.7,2.6,0l9.9-9.9
		C56.8,45.8,53.9,42.3,53.6,42.6z"/>
	<circle fill="#00669B" cx="298.2" cy="37" r="3.3"/>
</g>
<g>
</g>
<g>
</g>
<g>
</g>
<g>
</g>
<g>
</g>
<g>
</g>
</svg>
